<?xml version="1.0" encoding="UTF-8"?>
<svg width="960" height="620" viewBox="0 0 960 620" fill="none" xmlns="http://www.w3.org/2000/svg" role="img" aria-labelledby="title desc">
  <title id="title">Custom GitHub Pulse card for NekoAkari</title>
  <desc id="desc">A custom summary card showing profile stats, languages, recent repositories, and local activity time.</desc>
  <defs>
    <linearGradient id="bg" x1="40" y1="30" x2="860" y2="430" gradientUnits="userSpaceOnUse">
      <stop offset="0" stop-color="#FFF8F6" />
      <stop offset="1" stop-color="#F6FBFF" />
    </linearGradient>
    <linearGradient id="header" x1="56" y1="56" x2="844" y2="160" gradientUnits="userSpaceOnUse">
      <stop offset="0" stop-color="#FFE2EA" />
      <stop offset="1" stop-color="#DFF7F1" />
    </linearGradient>
    <filter id="shadow" x="0" y="0" width="960" height="620" filterUnits="userSpaceOnUse" color-interpolation-filters="sRGB">
      <feDropShadow dx="0" dy="12" stdDeviation="18" flood-color="#E9D8E0" flood-opacity="0.45" />
    </filter>
  </defs>

  <style>
    .title { font: 700 34px "Avenir Next", "Segoe UI", sans-serif; fill: #2f3142; }
    .subtitle { font: 500 16px "Avenir Next", "Segoe UI", sans-serif; fill: #5f6884; }
    .section { font: 700 14px "Avenir Next", "Segoe UI", sans-serif; fill: #58627f; letter-spacing: 0.12em; text-transform: uppercase; }
    .metric { font: 700 30px "Avenir Next", "Segoe UI", sans-serif; fill: #2f3142; }
    .metric-label { font: 500 13px "Avenir Next", "Segoe UI", sans-serif; fill: #6e7692; }
    .label { font: 600 17px "Avenir Next", "Segoe UI", sans-serif; fill: #364057; }
    .body { font: 500 14px "Avenir Next", "Segoe UI", sans-serif; fill: #4f5874; }
    .stat-muted { font: 500 13px "Avenir Next", "Segoe UI", sans-serif; fill: #7e88a6; }
    .small { font: 500 12px "Avenir Next", "Segoe UI", sans-serif; fill: #8b94af; }
  </style>

  <g filter="url(#shadow)">
    <rect x="24" y="24" width="912" height="560" rx="34" fill="url(#bg)" />
    <rect x="24.75" y="24.75" width="910.5" height="558.5" rx="33.25" stroke="#F2DDE4" stroke-opacity="0.9" stroke-width="1.5" />
  </g>

  <rect x="54" y="56" width="852" height="126" rx="28" fill="url(#header)" />
  <text x="84" y="110" class="title">NekoAkari</text>
  <text x="84" y="139" class="subtitle">Student @ SFU · Computing Science</text>
  <text x="84" y="165" class="small">Joined GitHub in 2019 • Last commit: Apr 6, 2026</text>

  <rect x="54" y="210" width="430" height="310" rx="26" fill="#FFFFFF" fill-opacity="0.88" stroke="#F4E5EA" />
  <text x="78" y="246" class="section">Top Languages by Commit</text>
  
        <text x="78" y="286" class="label">Swift</text>
        <rect x="224" y="270" width="146" height="18" rx="9" fill="#f7efe6" />
        <rect x="224" y="270" width="140" height="18" rx="9" fill="#f4a6b8" />
        <text x="460" y="286" class="stat-muted" text-anchor="end">31 commits</text>
      
        <text x="78" y="336" class="label">Java</text>
        <rect x="224" y="320" width="146" height="18" rx="9" fill="#f7efe6" />
        <rect x="224" y="320" width="95" height="18" rx="9" fill="#9fd3c7" />
        <text x="460" y="336" class="stat-muted" text-anchor="end">21 commits</text>
      
        <text x="78" y="386" class="label">JavaScript</text>
        <rect x="224" y="370" width="146" height="18" rx="9" fill="#f7efe6" />
        <rect x="224" y="370" width="59" height="18" rx="9" fill="#f6c6a8" />
        <text x="460" y="386" class="stat-muted" text-anchor="end">13 commits</text>
      

  <rect x="502" y="210" width="388" height="310" rx="26" fill="#FFFFFF" fill-opacity="0.88" stroke="#E5EFF0" />
  <text x="528" y="246" class="section">Recent Rhythm</text>
  <text x="528" y="272" class="body">Recent public activity sample</text>
  <text x="528" y="294" class="body">54 events across 14 active days</text>
  <text x="528" y="324" class="body">Most active hour in Vancouver</text>
  <text x="528" y="346" class="body">20:00 with 9 events</text>
  <text x="528" y="388" class="section">Recently Touched Repos</text>
  
        <circle cx="548" cy="414" r="4" fill="#9fd3c7" />
        <text x="564" y="420" class="label">NekoAkari</text>
        <text x="866" y="420" class="stat-muted" text-anchor="end">updated Apr 6</text>
      
        <circle cx="548" cy="444" r="4" fill="#9fd3c7" />
        <text x="564" y="450" class="label">AutoLedger</text>
        <text x="866" y="450" class="stat-muted" text-anchor="end">updated Mar 31</text>
      
        <circle cx="548" cy="474" r="4" fill="#9fd3c7" />
        <text x="564" y="480" class="label">cube-solver-Java</text>
        <text x="866" y="480" class="stat-muted" text-anchor="end">updated Mar 26</text>
      

  <g transform="translate(500 78)">
    <rect x="0" y="0" width="84" height="86" rx="22" fill="#FFFFFF" fill-opacity="0.82" />
    <text x="42" y="38" text-anchor="middle" class="metric">3</text>
    <text x="42" y="64" text-anchor="middle" class="metric-label">repos</text>
  </g>
  <g transform="translate(598 78)">
    <rect x="0" y="0" width="84" height="86" rx="22" fill="#FFFFFF" fill-opacity="0.82" />
    <text x="42" y="38" text-anchor="middle" class="metric">65</text>
    <text x="42" y="64" text-anchor="middle" class="metric-label">commits</text>
  </g>
  <g transform="translate(696 78)">
    <rect x="0" y="0" width="84" height="86" rx="22" fill="#FFFFFF" fill-opacity="0.82" />
    <text x="42" y="38" text-anchor="middle" class="metric">0</text>
    <text x="42" y="64" text-anchor="middle" class="metric-label">followers</text>
  </g>
  <g transform="translate(794 78)">
    <rect x="0" y="0" width="84" height="86" rx="22" fill="#FFFFFF" fill-opacity="0.82" />
    <text x="42" y="38" text-anchor="middle" class="metric">0</text>
    <text x="42" y="64" text-anchor="middle" class="metric-label">stars</text>
  </g>
</svg>